# Blender v2.75 (sub 0) OBJ File: ''
# www.blender.org
o Cylinder
v 0.000000 -0.020000 -0.050000
v 0.000000 0.020000 -0.050000
v 0.004900 0.020000 -0.049760
v 0.004900 -0.020000 -0.049760
v 0.009755 0.020000 -0.049040
v 0.009755 -0.020000 -0.049040
v 0.014515 0.020000 -0.047845
v 0.014515 -0.020000 -0.047845
v 0.019135 0.020000 -0.046195
v 0.019135 -0.020000 -0.046195
v 0.023570 0.020000 -0.044095
v 0.023570 -0.020000 -0.044095
v 0.027780 0.020000 -0.041575
v 0.027780 -0.020000 -0.041575
v 0.031720 0.020000 -0.038650
v 0.031720 -0.020000 -0.038650
v 0.035355 0.020000 -0.035355
v 0.035355 -0.020000 -0.035355
v 0.038650 0.020000 -0.031720
v 0.038650 -0.020000 -0.031720
v 0.041575 0.020000 -0.027780
v 0.041575 -0.020000 -0.027780
v 0.044095 0.020000 -0.023570
v 0.044095 -0.020000 -0.023570
v 0.046195 0.020000 -0.019135
v 0.046195 -0.020000 -0.019135
v 0.047845 0.020000 -0.014515
v 0.047845 -0.020000 -0.014515
v 0.049040 0.020000 -0.009755
v 0.049040 -0.020000 -0.009755
v 0.049760 0.020000 -0.004900
v 0.049760 -0.020000 -0.004900
v 0.050000 0.020000 0.000000
v 0.050000 -0.020000 -0.000000
v 0.049760 0.020000 0.004900
v 0.049760 -0.020000 0.004900
v 0.049040 0.020000 0.009755
v 0.049040 -0.020000 0.009755
v 0.047845 0.020000 0.014515
v 0.047845 -0.020000 0.014515
v 0.046195 0.020000 0.019135
v 0.046195 -0.020000 0.019135
v 0.044095 0.020000 0.023570
v 0.044095 -0.020000 0.023570
v 0.041575 0.020000 0.027780
v 0.041575 -0.020000 0.027780
v 0.038650 0.020000 0.031720
v 0.038650 -0.020000 0.031720
v 0.035355 0.020000 0.035355
v 0.035355 -0.020000 0.035355
v 0.031720 0.020000 0.038650
v 0.031720 -0.020000 0.038650
v 0.027780 0.020000 0.041575
v 0.027780 -0.020000 0.041575
v 0.023570 0.020000 0.044095
v 0.023570 -0.020000 0.044095
v 0.019135 0.020000 0.046195
v 0.019135 -0.020000 0.046195
v 0.014515 0.020000 0.047845
v 0.014515 -0.020000 0.047845
v 0.009755 0.020000 0.049040
v 0.009755 -0.020000 0.049040
v 0.004900 0.020000 0.049760
v 0.004900 -0.020000 0.049760
v 0.000000 0.020000 0.050000
v 0.000000 -0.020000 0.050000
v -0.004900 0.020000 0.049760
v -0.004900 -0.020000 0.049760
v -0.009755 0.020000 0.049040
v -0.009755 -0.020000 0.049040
v -0.014515 0.020000 0.047845
v -0.014515 -0.020000 0.047845
v -0.019135 0.020000 0.046195
v -0.019135 -0.020000 0.046195
v -0.023570 0.020000 0.044095
v -0.023570 -0.020000 0.044095
v -0.027780 0.020000 0.041575
v -0.027780 -0.020000 0.041575
v -0.031720 0.020000 0.038650
v -0.031720 -0.020000 0.038650
v -0.035355 0.020000 0.035355
v -0.035355 -0.020000 0.035355
v -0.038650 0.020000 0.031720
v -0.038650 -0.020000 0.031720
v -0.041575 0.020000 0.027780
v -0.041575 -0.020000 0.027780
v -0.044095 0.020000 0.023570
v -0.044095 -0.020000 0.023570
v -0.046195 0.020000 0.019135
v -0.046195 -0.020000 0.019135
v -0.047845 0.020000 0.014515
v -0.047845 -0.020000 0.014515
v -0.049040 0.020000 0.009755
v -0.049040 -0.020000 0.009755
v -0.049760 0.020000 0.004900
v -0.049760 -0.020000 0.004900
v -0.050000 0.020000 0.000000
v -0.050000 -0.020000 -0.000000
v -0.049760 0.020000 -0.004900
v -0.049760 -0.020000 -0.004900
v -0.049040 0.020000 -0.009755
v -0.049040 -0.020000 -0.009755
v -0.047845 0.020000 -0.014515
v -0.047845 -0.020000 -0.014515
v -0.046195 0.020000 -0.019135
v -0.046195 -0.020000 -0.019135
v -0.044095 0.020000 -0.023570
v -0.044095 -0.020000 -0.023570
v -0.041575 0.020000 -0.027780
v -0.041575 -0.020000 -0.027780
v -0.038650 0.020000 -0.031720
v -0.038650 -0.020000 -0.031720
v -0.035355 0.020000 -0.035355
v -0.035355 -0.020000 -0.035355
v -0.031720 0.020000 -0.038650
v -0.031720 -0.020000 -0.038650
v -0.027780 0.020000 -0.041575
v -0.027780 -0.020000 -0.041575
v -0.023570 0.020000 -0.044095
v -0.023570 -0.020000 -0.044095
v -0.019135 0.020000 -0.046195
v -0.019135 -0.020000 -0.046195
v -0.014515 0.020000 -0.047845
v -0.014515 -0.020000 -0.047845
v -0.009755 0.020000 -0.049040
v -0.009755 -0.020000 -0.049040
v 0.004900 0.020000 -0.049760
v 0.000000 0.020000 -0.050000
v -0.004900 0.020000 -0.049760
v -0.009755 0.020000 -0.049040
v -0.014515 0.020000 -0.047845
v -0.019135 0.020000 -0.046195
v -0.023570 0.020000 -0.044095
v -0.027780 0.020000 -0.041575
v -0.031720 0.020000 -0.038650
v -0.035355 0.020000 -0.035355
v -0.038650 0.020000 -0.031720
v -0.041575 0.020000 -0.027780
v -0.044095 0.020000 -0.023570
v -0.046195 0.020000 -0.019135
v -0.047845 0.020000 -0.014515
v -0.049040 0.020000 -0.009755
v -0.049760 0.020000 -0.004900
v -0.050000 0.020000 0.000000
v -0.049760 0.020000 0.004900
v -0.049040 0.020000 0.009755
v -0.047845 0.020000 0.014515
v -0.046195 0.020000 0.019135
v -0.044095 0.020000 0.023570
v -0.041575 0.020000 0.027780
v -0.038650 0.020000 0.031720
v -0.035355 0.020000 0.035355
v -0.031720 0.020000 0.038650
v -0.027780 0.020000 0.041575
v -0.023570 0.020000 0.044095
v -0.019135 0.020000 0.046195
v -0.014515 0.020000 0.047845
v -0.009755 0.020000 0.049040
v -0.004900 0.020000 0.049760
v 0.000000 0.020000 0.050000
v 0.004900 0.020000 0.049760
v 0.009755 0.020000 0.049040
v 0.014515 0.020000 0.047845
v 0.019135 0.020000 0.046195
v 0.023570 0.020000 0.044095
v 0.027780 0.020000 0.041575
v 0.031720 0.020000 0.038650
v 0.035355 0.020000 0.035355
v 0.038650 0.020000 0.031720
v 0.041575 0.020000 0.027780
v 0.044095 0.020000 0.023570
v 0.046195 0.020000 0.019135
v 0.047845 0.020000 0.014515
v 0.049040 0.020000 0.009755
v 0.049760 0.020000 0.004900
v 0.050000 0.020000 0.000000
v 0.049760 0.020000 -0.004900
v 0.049040 0.020000 -0.009755
v 0.047845 0.020000 -0.014515
v 0.046195 0.020000 -0.019135
v 0.044095 0.020000 -0.023570
v 0.041575 0.020000 -0.027780
v 0.038650 0.020000 -0.031720
v 0.035355 0.020000 -0.035355
v 0.031720 0.020000 -0.038650
v 0.027780 0.020000 -0.041575
v 0.023570 0.020000 -0.044095
v 0.019135 0.020000 -0.046195
v 0.014515 0.020000 -0.047845
v 0.009755 0.020000 -0.049040
v -0.004900 -0.020000 -0.049760
v -0.004900 0.020000 -0.049760
v 0.000000 -0.020000 -0.050000
v 0.004900 -0.020000 -0.049760
v 0.009755 -0.020000 -0.049040
v 0.014515 -0.020000 -0.047845
v 0.019135 -0.020000 -0.046195
v 0.023570 -0.020000 -0.044095
v 0.027780 -0.020000 -0.041575
v 0.031720 -0.020000 -0.038650
v 0.035355 -0.020000 -0.035355
v 0.038650 -0.020000 -0.031720
v 0.041575 -0.020000 -0.027780
v 0.044095 -0.020000 -0.023570
v 0.046195 -0.020000 -0.019135
v 0.047845 -0.020000 -0.014515
v 0.049040 -0.020000 -0.009755
v 0.049760 -0.020000 -0.004900
v 0.050000 -0.020000 -0.000000
v 0.049760 -0.020000 0.004900
v 0.049040 -0.020000 0.009755
v 0.047845 -0.020000 0.014515
v 0.046195 -0.020000 0.019135
v 0.044095 -0.020000 0.023570
v 0.041575 -0.020000 0.027780
v 0.038650 -0.020000 0.031720
v 0.035355 -0.020000 0.035355
v 0.031720 -0.020000 0.038650
v 0.027780 -0.020000 0.041575
v 0.023570 -0.020000 0.044095
v 0.019135 -0.020000 0.046195
v 0.014515 -0.020000 0.047845
v 0.009755 -0.020000 0.049040
v 0.004900 -0.020000 0.049760
v 0.000000 -0.020000 0.050000
v -0.004900 -0.020000 0.049760
v -0.009755 -0.020000 0.049040
v -0.014515 -0.020000 0.047845
v -0.019135 -0.020000 0.046195
v -0.023570 -0.020000 0.044095
v -0.027780 -0.020000 0.041575
v -0.031720 -0.020000 0.038650
v -0.035355 -0.020000 0.035355
v -0.038650 -0.020000 0.031720
v -0.041575 -0.020000 0.027780
v -0.044095 -0.020000 0.023570
v -0.046195 -0.020000 0.019135
v -0.047845 -0.020000 0.014515
v -0.049040 -0.020000 0.009755
v -0.049760 -0.020000 0.004900
v -0.050000 -0.020000 -0.000000
v -0.049760 -0.020000 -0.004900
v -0.049040 -0.020000 -0.009755
v -0.047845 -0.020000 -0.014515
v -0.046195 -0.020000 -0.019135
v -0.044095 -0.020000 -0.023570
v -0.041575 -0.020000 -0.027780
v -0.038650 -0.020000 -0.031720
v -0.035355 -0.020000 -0.035355
v -0.031720 -0.020000 -0.038650
v -0.027780 -0.020000 -0.041575
v -0.023570 -0.020000 -0.044095
v -0.019135 -0.020000 -0.046195
v -0.014515 -0.020000 -0.047845
v -0.009755 -0.020000 -0.049040
v -0.004900 -0.020000 -0.049760
vn 0.000000 0.000000 -1.000000
vn 0.097900 0.000000 -0.995200
vn 0.194900 0.000000 -0.980800
vn 0.290300 0.000000 -0.956900
vn 0.382600 0.000000 -0.923900
vn 0.471300 0.000000 -0.882000
vn 0.555500 0.000000 -0.831500
vn 0.634600 0.000000 -0.772800
vn 0.707100 0.000000 -0.707100
vn 0.772800 0.000000 -0.634600
vn 0.831500 0.000000 -0.555500
vn 0.882000 0.000000 -0.471300
vn 0.923900 0.000000 -0.382600
vn 0.956900 0.000000 -0.290300
vn 0.980800 0.000000 -0.194900
vn 0.995200 -0.000000 -0.097900
vn 1.000000 0.000000 0.000000
vn 0.995200 0.000000 0.097900
vn 0.980800 0.000000 0.194900
vn 0.956900 -0.000000 0.290300
vn 0.923900 -0.000000 0.382600
vn 0.882000 -0.000000 0.471300
vn 0.831500 -0.000000 0.555500
vn 0.772800 -0.000000 0.634600
vn 0.707100 -0.000000 0.707100
vn 0.634600 -0.000000 0.772800
vn 0.555500 -0.000000 0.831500
vn 0.471300 -0.000000 0.882000
vn 0.382600 -0.000000 0.923900
vn 0.290300 -0.000000 0.956900
vn 0.194900 -0.000000 0.980800
vn 0.097900 -0.000000 0.995200
vn 0.000000 -0.000000 1.000000
vn -0.097900 -0.000000 0.995200
vn -0.194900 -0.000000 0.980800
vn -0.290300 -0.000000 0.956900
vn -0.382600 -0.000000 0.923900
vn -0.471300 -0.000000 0.882000
vn -0.555500 -0.000000 0.831500
vn -0.634600 -0.000000 0.772800
vn -0.707100 -0.000000 0.707100
vn -0.772800 -0.000000 0.634600
vn -0.831500 -0.000000 0.555500
vn -0.882000 -0.000000 0.471300
vn -0.923900 -0.000000 0.382600
vn -0.956900 -0.000000 0.290300
vn -0.980800 -0.000000 0.194900
vn -0.995200 0.000000 0.097900
vn -1.000000 -0.000000 0.000000
vn -0.995200 -0.000000 -0.097900
vn -0.980800 -0.000000 -0.194900
vn -0.956900 0.000000 -0.290300
vn -0.923900 0.000000 -0.382600
vn -0.882000 0.000000 -0.471300
vn -0.831500 0.000000 -0.555500
vn -0.772800 0.000000 -0.634600
vn -0.707100 0.000000 -0.707100
vn -0.634600 0.000000 -0.772800
vn -0.555500 0.000000 -0.831500
vn -0.471300 0.000000 -0.882000
vn -0.382600 0.000000 -0.923900
vn -0.290300 0.000000 -0.956900
vn -0.194900 0.000000 -0.980800
vn 0.000000 1.000000 0.000000
vn -0.097900 0.000000 -0.995200
vn 0.000000 -1.000000 -0.000000
s 1
f 1//1 2//1 3//2 4//2
f 4//2 3//2 5//3 6//3
f 6//3 5//3 7//4 8//4
f 8//4 7//4 9//5 10//5
f 10//5 9//5 11//6 12//6
f 12//6 11//6 13//7 14//7
f 14//7 13//7 15//8 16//8
f 16//8 15//8 17//9 18//9
f 18//9 17//9 19//10 20//10
f 20//10 19//10 21//11 22//11
f 22//11 21//11 23//12 24//12
f 24//12 23//12 25//13 26//13
f 26//13 25//13 27//14 28//14
f 28//14 27//14 29//15 30//15
f 30//15 29//15 31//16 32//16
f 32//16 31//16 33//17 34//17
f 34//17 33//17 35//18 36//18
f 36//18 35//18 37//19 38//19
f 38//19 37//19 39//20 40//20
f 40//20 39//20 41//21 42//21
f 42//21 41//21 43//22 44//22
f 44//22 43//22 45//23 46//23
f 46//23 45//23 47//24 48//24
f 48//24 47//24 49//25 50//25
f 50//25 49//25 51//26 52//26
f 52//26 51//26 53//27 54//27
f 54//27 53//27 55//28 56//28
f 56//28 55//28 57//29 58//29
f 58//29 57//29 59//30 60//30
f 60//30 59//30 61//31 62//31
f 62//31 61//31 63//32 64//32
f 64//32 63//32 65//33 66//33
f 66//33 65//33 67//34 68//34
f 68//34 67//34 69//35 70//35
f 70//35 69//35 71//36 72//36
f 72//36 71//36 73//37 74//37
f 74//37 73//37 75//38 76//38
f 76//38 75//38 77//39 78//39
f 78//39 77//39 79//40 80//40
f 80//40 79//40 81//41 82//41
f 82//41 81//41 83//42 84//42
f 84//42 83//42 85//43 86//43
f 86//43 85//43 87//44 88//44
f 88//44 87//44 89//45 90//45
f 90//45 89//45 91//46 92//46
f 92//46 91//46 93//47 94//47
f 94//47 93//47 95//48 96//48
f 96//48 95//48 97//49 98//49
f 98//49 97//49 99//50 100//50
f 100//50 99//50 101//51 102//51
f 102//51 101//51 103//52 104//52
f 104//52 103//52 105//53 106//53
f 106//53 105//53 107//54 108//54
f 108//54 107//54 109//55 110//55
f 110//55 109//55 111//56 112//56
f 112//56 111//56 113//57 114//57
f 114//57 113//57 115//58 116//58
f 116//58 115//58 117//59 118//59
f 118//59 117//59 119//60 120//60
f 120//60 119//60 121//61 122//61
f 122//61 121//61 123//62 124//62
f 124//62 123//62 125//63 126//63
f 127//64 128//64 129//64 130//64 131//64 132//64 133//64 134//64 135//64 136//64 137//64 138//64 139//64 140//64 141//64 142//64 143//64 144//64 145//64 146//64 147//64 148//64 149//64 150//64 151//64 152//64 153//64 154//64 155//64 156//64 157//64 158//64 159//64 160//64 161//64 162//64 163//64 164//64 165//64 166//64 167//64 168//64 169//64 170//64 171//64 172//64 173//64 174//64 175//64 176//64 177//64 178//64 179//64 180//64 181//64 182//64 183//64 184//64 185//64 186//64 187//64 188//64 189//64 190//64
f 191//65 192//65 2//1 1//1
f 126//63 125//63 192//65 191//65
f 193//66 194//66 195//66 196//66 197//66 198//66 199//66 200//66 201//66 202//66 203//66 204//66 205//66 206//66 207//66 208//66 209//66 210//66 211//66 212//66 213//66 214//66 215//66 216//66 217//66 218//66 219//66 220//66 221//66 222//66 223//66 224//66 225//66 226//66 227//66 228//66 229//66 230//66 231//66 232//66 233//66 234//66 235//66 236//66 237//66 238//66 239//66 240//66 241//66 242//66 243//66 244//66 245//66 246//66 247//66 248//66 249//66 250//66 251//66 252//66 253//66 254//66 255//66 256//66
